<svg width="84" height="52" viewBox="0 0 84 52" fill="none" xmlns="http://www.w3.org/2000/svg">
<path d="M33.634 15.8928L37.3874 22.3946L41.8171 30.0724L46.2455 22.3946L49.9989 15.8928C51.0716 14.3896 51.7095 12.6199 51.8427 10.778C51.9759 8.93602 51.5991 7.09298 50.7538 5.45108C49.9084 3.80918 48.6272 2.43187 47.0506 1.47029C45.4741 0.508702 43.6631 0 41.8165 0C39.9698 0 38.1589 0.508702 36.5823 1.47029C35.0057 2.43187 33.7245 3.80918 32.8791 5.45108C32.0338 7.09298 31.657 8.93602 31.7902 10.778C31.9234 12.6199 32.5613 14.3896 33.634 15.8928Z" fill="#FFBC00"/>
<path d="M72.7675 29.7031L63.9605 24.6175C61.9243 23.1641 59.527 22.2998 57.0318 22.1193C54.5366 21.9388 52.04 22.4492 49.8158 23.5944C47.5915 24.7397 45.7258 26.4755 44.4231 28.6114C43.1205 30.7474 42.4314 33.2009 42.4314 35.7028C42.4314 38.2046 43.1205 40.6581 44.4231 42.7941C45.7258 44.93 47.5915 46.6658 49.8158 47.8111C52.04 48.9563 54.5366 49.4667 57.0318 49.2862C59.527 49.1058 61.9243 48.2414 63.9605 46.788L72.7675 41.7036L83.1599 35.7076L72.7675 29.7031Z" fill="#FFBC00"/>
<path d="M27.1119 22.085C24.2743 22.0799 21.5067 22.9656 19.1994 24.6175L10.3924 29.7031L0 35.7076L10.3924 41.7085L19.1994 46.7929C20.9446 48.0386 22.9594 48.8545 25.0795 49.1743C27.1997 49.4941 29.3654 49.3087 31.4004 48.6332C33.4354 47.9577 35.2821 46.8112 36.7903 45.287C38.2985 43.7629 39.4254 41.9041 40.0795 39.862C40.7335 37.8199 40.8962 35.6522 40.5542 33.5354C40.2122 31.4186 39.3752 29.4124 38.1114 27.6802C36.8476 25.948 35.1926 24.5387 33.2812 23.5671C31.3699 22.5955 29.2561 22.0889 27.1119 22.0887V22.085Z" fill="#FFBC00"/>
<path d="M41.8121 42.9297L43.4012 45.835L46.3064 47.4242L43.4012 49.0134L41.8121 51.92L40.2231 49.0134L37.3167 47.4242L40.2231 45.835L41.8121 42.9297Z" fill="white"/>
</svg>
