<svg width="84" height="52" viewBox="0 0 84 52" fill="none" xmlns="http://www.w3.org/2000/svg">
<path d="M33.6346 15.8921L37.388 22.3936L41.8178 30.0711L46.2464 22.3936L49.9998 15.8921C51.0725 14.389 51.7105 12.6194 51.8436 10.7775C51.9768 8.93563 51.6 7.09267 50.7547 5.45084C49.9093 3.80901 48.6281 2.43177 47.0515 1.47022C45.4749 0.50868 43.6639 0 41.8172 0C39.9705 0 38.1595 0.50868 36.5829 1.47022C35.0063 2.43177 33.7251 3.80901 32.8797 5.45084C32.0344 7.09267 31.6576 8.93563 31.7908 10.7775C31.9239 12.6194 32.5619 14.389 33.6346 15.8921Z" fill="#4169E1"/>
<path d="M72.769 29.7018L63.9618 24.6164C61.9255 23.1631 59.5282 22.2988 57.033 22.1183C54.5377 21.9379 52.041 22.4482 49.8167 23.5934C47.5925 24.7386 45.7267 26.4744 44.424 28.6102C43.1214 30.7461 42.4323 33.1995 42.4323 35.7012C42.4323 38.203 43.1214 40.6564 44.424 42.7922C45.7267 44.9281 47.5925 46.6638 49.8167 47.809C52.041 48.9542 54.5377 49.4646 57.033 49.2841C59.5282 49.1037 61.9255 48.2393 63.9618 46.786L72.769 41.7018L83.1616 35.7061L72.769 29.7018Z" fill="#4169E1"/>
<path d="M27.1124 22.0841C24.2748 22.0789 21.5071 22.9647 19.1998 24.6164L10.3926 29.7018L0 35.7061L10.3926 41.7067L19.1998 46.7909C20.945 48.0365 22.9598 48.8524 25.08 49.1722C27.2002 49.4919 29.366 49.3065 31.401 48.6311C33.436 47.9556 35.2828 46.8092 36.791 45.2851C38.2992 43.761 39.4262 41.9023 40.0803 39.8603C40.7343 37.8183 40.897 35.6507 40.555 33.534C40.213 31.4172 39.376 29.4111 38.1121 27.679C36.8483 25.9469 35.1933 24.5377 33.2819 23.5661C31.3705 22.5945 29.2566 22.088 27.1124 22.0877V22.0841Z" fill="#4169E1"/>
<path d="M41.813 42.9278L43.4021 45.833L46.3073 47.4222L43.4021 49.0113L41.813 51.9177L40.2239 49.0113L37.3174 47.4222L40.2239 45.833L41.813 42.9278Z" fill="black"/>
</svg>
